<svg width="56" height="55" viewBox="0 0 56 55" fill="none" xmlns="http://www.w3.org/2000/svg">
<g filter="url(#filter0_i_131_257)">
<g filter="url(#filter1_f_131_257)">
<ellipse cx="28" cy="27.5" rx="12.5" ry="13" transform="rotate(90 28 27.5)" fill="#43AAFF"/>
</g>
<circle cx="28.5" cy="22.5" r="17.5" transform="rotate(90 28.5 22.5)" fill="#43AAFF"/>
<path d="M28.9126 25.3758L32.4956 21.6042C32.7237 21.3643 32.7237 20.9753 32.4956 20.7355C32.2678 20.4957 31.8983 20.4957 31.6704 20.7355L28.4999 24.0728L25.3296 20.7356C25.1016 20.4958 24.7321 20.4958 24.5043 20.7356C24.2764 20.9754 24.2764 21.3644 24.5043 21.6043L28.0874 25.3759C28.2014 25.4958 28.3506 25.5557 28.4999 25.5557C28.6493 25.5557 28.7986 25.4957 28.9126 25.3758Z" fill="white"/>
</g>
<defs>
<filter id="filter0_i_131_257" x="11" y="5" width="35" height="39" filterUnits="userSpaceOnUse" color-interpolation-filters="sRGB">
<feFlood flood-opacity="0" result="BackgroundImageFix"/>
<feBlend mode="normal" in="SourceGraphic" in2="BackgroundImageFix" result="shape"/>
<feColorMatrix in="SourceAlpha" type="matrix" values="0 0 0 0 0 0 0 0 0 0 0 0 0 0 0 0 0 0 127 0" result="hardAlpha"/>
<feOffset dy="4"/>
<feGaussianBlur stdDeviation="5"/>
<feComposite in2="hardAlpha" operator="arithmetic" k2="-1" k3="1"/>
<feColorMatrix type="matrix" values="0 0 0 0 1 0 0 0 0 1 0 0 0 0 1 0 0 0 0.3 0"/>
<feBlend mode="normal" in2="shape" result="effect1_innerShadow_131_257"/>
</filter>
<filter id="filter1_f_131_257" x="0" y="0" width="56" height="55" filterUnits="userSpaceOnUse" color-interpolation-filters="sRGB">
<feFlood flood-opacity="0" result="BackgroundImageFix"/>
<feBlend mode="normal" in="SourceGraphic" in2="BackgroundImageFix" result="shape"/>
<feGaussianBlur stdDeviation="7.5" result="effect1_foregroundBlur_131_257"/>
</filter>
</defs>
</svg>
